<?xml version="1.0" standalone="yes"?>
<svg xmlns="http://www.w3.org/2000/svg" width="1623" height="2061">
<path style="fill:#78e4cd; stroke:none;" d="M0 0L0 2061L1623 2061L1623 0L0 0z"/>
<path style="fill:#d5c8d8; stroke:none;" d="M827.004 350.841C811.034 353.784 826.492 377.481 837.985 375.757C846.128 374.536 857.261 359.88 849.347 352.603C845.12 348.717 840.132 353.452 835.576 352.822C832.58 352.407 830.193 350.253 827.004 350.841z"/>
<path style="fill:#ca8e63; stroke:none;" d="M846 423L846 424L851 424L846 423M816 439C825.031 432.825 831.525 426.001 843 425C833.443 421.279 821.006 431.899 816 439z"/>
<path style="fill:#58412c; stroke:none;" d="M796 797C799.871 817.85 799.115 839.88 800.039 861C801.151 886.393 803.391 911.536 804.015 937C804.285 948.049 806.855 958.955 807.004 970C807.05 973.425 808.75 978.619 806.806 981.682C804.601 985.157 798.466 983.963 795 984.004C785.936 984.112 777.372 985.803 769 989.216C764.549 991.031 760.725 994.457 756 995.585C747.352 997.649 739.765 996.923 732 1002.33C729.212 1004.27 723.048 1012.47 719.302 1010.17C715.105 1007.59 712.296 994.587 709.821 990C702.071 975.637 692.798 962.375 681.001 951.039C676.539 946.752 665.031 940.048 663.522 933.985C662.563 930.127 665.94 923.692 667.114 920C669.14 913.628 669.53 906.627 668.714 900C663.907 860.987 629.609 838.113 592 838.575C565.123 838.905 538.806 857.786 526.735 881C522.905 888.364 523.254 901.97 517.686 907.606C512.755 912.596 499.726 914.091 493 916.039C480.676 919.608 467.962 925.96 457 932.58C439.884 942.917 423.639 955.107 410.17 970C402.845 978.099 397.269 989.357 389.402 996.643C386.241 999.57 381.754 997.443 378 997.076C368.931 996.189 360.071 995.992 351 997.3C318.751 1001.95 296.045 1026.39 288.749 1057C280.518 1091.53 306.238 1122.97 338 1132.38C344.436 1134.29 352.305 1134.99 359 1134.99C362.623 1134.99 367.469 1133.32 370.786 1135.19C377.143 1138.78 380.983 1154.69 385.1 1161C396.062 1177.81 408.952 1192.67 425 1204.87C431.072 1209.49 437.345 1213.76 444 1217.5C446.467 1218.89 450.791 1220.23 451.812 1223.19C453.223 1227.28 446.462 1234.47 444.669 1238C438.349 1250.44 435.117 1263.55 431.899 1277C422.597 1315.88 431.069 1364.83 456.375 1396C480.849 1426.14 524.629 1432.06 558 1413.67C570.302 1406.89 582.599 1396.19 586 1382L589 1382C597.217 1400.05 608.076 1413.93 612.331 1434C618.57 1463.42 615.076 1494.7 636.769 1518.83C677.158 1563.76 766.821 1551.51 795.262 1498C802.055 1485.22 802.749 1470.98 800.576 1457C799.641 1450.99 796.466 1445.05 797 1439L799 1439C804.907 1454.17 819.426 1465.12 834 1471.08C879.011 1489.52 931.246 1461.26 950.777 1419C963.801 1390.82 953.174 1359.88 940.077 1334C916.036 1286.49 883.756 1238.6 842 1205C832.079 1197.01 822.437 1187.83 811 1182C819.864 1161.82 838.453 1144.56 850.46 1126C861.004 1109.7 862.56 1093.4 868.991 1076C872.943 1065.31 879.791 1056.35 882.475 1045C886.483 1028.06 884.266 1008.18 883.089 991C881.072 961.538 879.002 931.545 879 902C878.998 875.362 875.289 848.67 875.004 822C874.948 816.773 871.459 799.166 876.318 796.218C881.853 792.86 893.915 800.542 899 802.845C912.736 809.067 926.092 816.429 937 827.014C944.208 834.008 953.282 846.993 964 847.775C975.447 848.611 978.672 837.953 985.171 831.039C992.466 823.276 1003.29 816.002 1013 811.616C1072.92 784.546 1147.41 786.161 1196 834.999C1205.73 844.784 1221.4 851.745 1230.63 835.985C1235.12 828.33 1233 816.56 1233 808C1233 780.272 1227.29 753.703 1221.39 727C1191.68 592.552 1057.84 490.08 925 470.299C916.57 469.044 907.421 466.45 899 466.04C894.919 465.842 887.828 467.414 884.603 464.258C881.048 460.777 882.515 449.986 880.265 445C872.342 427.44 852.664 421.135 835 426.298C825.394 429.105 815.349 437.048 812.542 447C811.311 451.365 813.101 463.271 808.837 465.258C805.374 466.871 800.707 465.775 797 466.174C789.453 466.984 781.512 469.099 774 470.463C751.257 474.592 728.753 481.476 707 489.229C612.565 522.889 526.699 594.61 491.05 690C477.795 725.469 472 761.102 472 799C472 810.125 470.764 830.642 479.058 838.906C496.966 856.748 513.153 826.557 527 817.535C569.964 789.541 627.009 788.843 672 812.209C684.389 818.643 695.158 827.191 705 837.001C711.456 843.436 717.872 851.484 728 849.775C738.283 848.041 742.503 833.871 749.04 827C761.682 813.713 778.172 802.096 796 797z"/>
<path style="fill:#ca8e63; stroke:none;" d="M852 424L852 425L855 425L852 424z"/>
<path style="fill:#d5c8d8; stroke:none;" d="M966.004 424.747C949.993 429.256 966.368 452.384 978 449.412C985.613 447.467 996.455 433.752 988.682 426.514C983.964 422.12 980.014 426.963 975 426.362C971.79 425.977 969.401 423.79 966.004 424.747z"/>
<path style="fill:#ca8e63; stroke:none;" d="M856.667 425.333L857.333 425.667L856.667 425.333M859 426L859 427L862 427L859 426M862 427L862 428L866 429L866 428L862 427M866 429L867 430L866 429M868 430L869 431L868 430z"/>
<path style="fill:#d5c8d8; stroke:none;" d="M708.015 431.746C693.432 437.297 710.501 460.249 722 455.91C729.671 453.015 740.116 440.114 731.387 432.742C726.727 428.808 722.866 433.948 718.17 433.522C714.363 433.176 712.227 430.143 708.015 431.746z"/>
<path style="fill:#ca8e63; stroke:none;" d="M870 431L871 432L870 431M871 432L872 433L871 432M872 433L873 434L872 433M873 434L874 435L873 434M874 435L875 436L874 435M875 436L876 437L875 436M876.333 437.667L876.667 438.333L876.333 437.667M877 439L878 440L877 439M815 440L816 441L815 440M878 440L879 441L878 440M814.333 441.667L814.667 442.333L814.333 441.667M879 441L879 444L880 444L879 441M813 443L814 444L813 443M812 444L812 447L813 447L812 444M880.333 444.667L880.667 445.333L880.333 444.667M811 447L811 453L812 453L811 447M881 447L882 448L881 447M882.333 449.667L882.667 450.333L882.333 449.667z"/>
<path style="fill:#d5c8d8; stroke:none;" d="M525.148 450.743C520.473 452.831 521.671 460.364 523.573 464C527.285 471.098 535.048 476.257 542.999 472.721C549.11 470.004 558.279 457.876 550.682 451.858C547.69 449.487 528.723 449.147 525.148 450.743z"/>
<path style="fill:#ca8e63; stroke:none;" d="M883 452L885 465L883 452M844.11 453.576C837.213 455.715 843.516 463.377 848.853 461.357C855.475 458.85 849.873 451.789 844.11 453.576M810 454L810 461L811 461L810 454z"/>
<path style="fill:#d5c8d8; stroke:none;" d="M1140.02 454.577C1134.36 456.195 1133.86 463.368 1136.18 468C1139.41 474.449 1147.72 479.647 1154.99 477.346C1161.79 475.193 1171.44 461.277 1163.41 455.179C1160.97 453.323 1143.23 453.658 1140.02 454.577M843 455L842 457L843 455z"/>
<path style="fill:#d1d974; stroke:none;" d="M851 455C837.912 455.155 849.46 464.228 851 455M1146 455L1146 456L1149 456L1146 455z"/>
<path style="fill:#ca8e63; stroke:none;" d="M811 461L810 465L811 461M799 465L799 466L810 466L799 465M885 465L885 466L901 466L885 465M791 466L791 467L795 467L791 466M903 466L903 467L906 467L903 466M782 468L782 469L791 468L782 468M906 467L906 468L917 469L906 467M775 469L775 470L782 470L775 469M917 469L917 470L924 470L917 469M771 470L771 471L774 471L771 470M926 470L926 471L929 471L926 470M767 471L767 472L770 472L767 471M930 471L930 472L933 472L930 471M761 472L761 473L766 473L761 472M933 472L933 473L938 473L933 472M757 473L757 474L761 474L757 473M939 473L939 474L943 474L939 473M754.667 474.333L755.333 474.667L754.667 474.333M944.667 474.333L945.333 474.667L944.667 474.333M751 475L751 476L754 476L751 475M946 475L946 476L950 476L946 475M744 476L744 477L751 477L744 476M950 476L950 477L956 477L950 476M741.667 477.333L742.333 477.667L741.667 477.333M957 477L957 478L960 478L957 477M739 478L740 479L739 478M960.667 478.333L961.333 478.667L960.667 478.333M736.667 479.333L737.333 479.667L736.667 479.333M962 479L962 480L965 480L962 479M731 480L731 481L736 481L731 480M965 480L965 481L970 481L965 480M727 481L727 482L731 482L727 481M970 481L970 482L974 482L970 481M725.667 482.333L726.333 482.667L725.667 482.333M974.667 482.333L975.333 482.667L974.667 482.333M723.667 483.333L724.333 483.667L723.667 483.333M976.667 483.333L977.333 483.667L976.667 483.333M719 484L719 485L723 485L719 484M978 484L978 485L982 485L978 484M715 485L715 486L718 486L715 485M982 485L982 486L985 486L982 485M714 486L715 487L714 486M985 486L985 487L988 487L985 486M711.667 487.333L712.333 487.667L711.667 487.333M988.667 487.333L989.333 487.667L988.667 487.333M707 488L707 489L710 489L707 488M990 488L990 489L994 489L990 488M704.667 489.333L705.333 489.667L704.667 489.333M994 489L994 490L997 490L994 489M703 490L704 491L703 490M997 490L997 491L1001 492L1001 491L997 490M700 491L700 492L703 492L700 491M696 492L696 493L699 493L696 492M737 796C751.089 792.162 765.015 778.828 779 772.872C808.437 760.334 844.871 759.143 876 765.314C896.163 769.311 916.521 778.198 934 788.911C937.581 791.106 949.319 802.374 953.397 799.864C956.874 797.723 955.994 781.004 956 777C956.038 753.125 954.192 729.671 951.285 706C944.148 647.891 927.557 586.798 897.711 536C887.171 518.06 867.969 490.645 844 492.109C821.81 493.464 802.29 520.508 791.318 537C781.895 551.163 774.265 566.362 767.579 582C754.869 611.728 749.251 642.909 741.884 674C737.087 694.246 737.323 715.381 735.911 736C734.607 755.042 732.542 777.276 737 796M1001 492L1001 493L1005 493L1001 492M694 493L695 494L694 493M1006 493L1007 494L1006 493M690 495L690 496L694 495L690 495z"/>
<path style="fill:#d1d974; stroke:none;" d="M737 793L738 794C753.913 786.909 767.311 775.71 784 769.319C819.558 755.704 857.09 759.129 893 768.35C908.828 772.415 924.246 781.021 938 789.615C940.851 791.397 949.626 800.324 952.972 796.377C956.037 792.763 954 781.54 954 777C954 758.419 953.521 740.44 951.286 722C943.814 660.356 929.963 597.934 899.706 543C888.803 523.205 870.066 492.955 844 494.019C835.791 494.354 827.296 500.586 821 505.428C803.46 518.919 790.662 538.448 780.784 558C756.22 606.622 741.815 661.605 738.089 716C736.391 740.799 741.421 768.828 737 793z"/>
<path style="fill:#ca8e63; stroke:none;" d="M1007 494L1007 495L1014 497L1014 496L1007 494M687 496L687 497L690 497L687 496M684.667 497.333L685.333 497.667L684.667 497.333M707 797C706.818 731.14 706.746 664.964 729.326 602C738.259 577.088 747.698 551.3 762.286 529C767.409 521.167 782.95 506.28 782 497C753.877 507.833 723.943 512.085 696 524.513C623.083 556.945 557.068 611.532 524.671 686C513.4 711.906 504.039 740.561 502.09 769C501.777 773.563 499.454 793.312 503.603 795.864C507.097 798.012 517.622 789.21 521 787.46C536.84 779.254 553.564 773.761 571 770.015C599.74 763.839 635.531 766.821 663 776.951C677.16 782.172 692.42 794.985 707 797M907 497C908.393 505.796 918.363 515.416 923.139 523C932.226 537.432 938.862 553.392 945.605 569C965.134 614.203 976.803 666.198 981.921 715C983.901 733.876 985 753.01 985 772C985 775.861 982.796 788.718 986.357 790.928C989.427 792.833 993.425 789.554 996 788.141C1003.85 783.836 1011.91 781.082 1020 777.513C1045.45 766.282 1075.69 764.956 1103 765C1128.37 765.041 1156.69 774.551 1179 786.109C1182.34 787.842 1199.35 800.559 1201.88 797.339C1205.08 793.264 1200.99 776.064 1200.27 771C1196.36 743.595 1189.3 717.548 1178.59 692C1145.01 611.902 1076.82 556.545 999 522.37C971.839 510.442 936.988 497.003 907 497M1015 497L1018 499L1015 497M683 498L684 499L683 498z"/>
<path style="fill:#d5c8d8; stroke:none;" d="M909 498C916.346 515.684 930.558 531.306 938.834 549C962.006 598.541 971.831 649.939 981.463 703C986.116 728.633 992.138 763.218 986 789C992.618 789.995 1001.96 783.266 1008 780.361C1019.5 774.834 1033.47 770.313 1046 767.934C1084.36 760.656 1123.12 761.253 1160 775.594C1174.47 781.223 1186.7 789.322 1200 797C1200 641.427 1056.32 517.039 909 498z"/>
<path style="fill:#ca8e63; stroke:none;" d="M680 499L680 500L683 500L680 499M1018 499L1018 500L1021 500L1018 499M678.667 500.333L679.333 500.667L678.667 500.333M1021.67 500.333L1022.33 500.667L1021.67 500.333M676.667 501.333L677.333 501.667L676.667 501.333z"/>
<path style="fill:#d5c8d8; stroke:none;" d="M504 795C517.011 790.621 528.87 781.048 542 776.042C570.621 765.128 606.772 762.396 637 768.095C653.232 771.155 669.101 777.114 684 784.03C690.952 787.257 697.183 793.433 705 794C699.297 721.738 709.674 645.387 736.204 578C742.794 561.264 750.74 544.162 760.492 529C766.072 520.323 775.985 510.769 779 501C752.771 503.073 726.101 514.425 702 524.181C623.459 555.97 554.155 616.254 522.421 696C514.503 715.895 510.241 735.04 506.536 756C504.425 767.946 501.236 782.973 504 795z"/>
<path style="fill:#ca8e63; stroke:none;" d="M1024 501L1025 502L1024 501M674 502L675 503L674 502M1025.67 502.333L1026.33 502.667L1025.67 502.333M671 503L671 504L674 504L671 503M1027 503L1027 504L1030 504L1027 503M669.667 504.333L670.333 504.667L669.667 504.333M1030.67 504.333L1031.33 504.667L1030.67 504.333M667.667 505.333L668.333 505.667L667.667 505.333M1033 505L1034 506L1033 505M666 506L667 507L666 506M1034 506L1035 507L1034 506M663 507L663 508L666 508L663 507M1035 507L1035 508L1038 508L1035 507M661 508L662 509L661 508M1038.67 508.333L1039.33 508.667L1038.67 508.333M660 509L661 510L660 509M658.667 510.333L659.333 510.667L658.667 510.333M1042 510L1043 511L1042 510M655 511L655 512L658 512L655 511M1043.67 511.333L1044.33 511.667L1043.67 511.333M653.667 512.333L654.333 512.667L653.667 512.333M1045 512L1045 513L1048 513L1045 512M652 513L653 514L652 513M1048 513L1049 514L1048 513M650.667 514.333L651.333 514.667L650.667 514.333M1050 514L1051 515L1050 514M648.667 515.333L649.333 515.667L648.667 515.333M1051.67 515.333L1052.33 515.667L1051.67 515.333M646.667 516.333L647.333 516.667L646.667 516.333M1053.67 516.333L1054.33 516.667L1053.67 516.333M645 517L646 518L645 517M1055 517L1056 518L1055 517M643.667 518.333L644.333 518.667L643.667 518.333M1056.67 518.333L1057.33 518.667L1056.67 518.333M640 519L640 520L643 520L640 519M1058.67 519.333L1059.33 519.667L1058.67 519.333M639 520L640 521L639 520M1060.67 520.333L1061.33 520.667L1060.67 520.333M638 521L639 522L638 521M1062 521L1063 522L1062 521M636.667 522.333L637.333 522.667L636.667 522.333M1063 522L1064 523L1063 522M634.667 523.333L635.333 523.667L634.667 523.333M1064 523L1064 524L1067 524L1064 523M632.667 524.333L633.333 524.667L632.667 524.333M1068 524L1069 525L1068 524M631 525L632 526L631 525M1069 525L1070 526L1069 525M630 526L631 527L630 526M1070 526L1071 527L1070 526M628.667 527.333L629.333 527.667L628.667 527.333M1072 527L1073 528L1072 527M626 528L627 529L626 528M1073.67 528.333L1074.33 528.667L1073.67 528.333M625 529L626 530L625 529M1075 529L1078 531L1075 529M623.667 530.333L624.333 530.667L623.667 530.333M621.667 531.333L622.333 531.667L621.667 531.333M1078.67 531.333L1079.33 531.667L1078.67 531.333M620 532L621 533L620 532M1080 532L1081 533L1080 532M619 533L620 534L619 533M1081 533L1082 534L1081 533M616 534L616 535L619 535L616 534M1083 534L1084 535L1083 534M615 535L616 536L615 535M1085 535L1086 536L1085 535M614 536L615 537L614 536M1086 536L1087 537L1086 536M613 537L614 538L613 537M1087 537L1088 538L1087 537M611.667 538.333L612.333 538.667L611.667 538.333M1088 538L1089 539L1088 538M609.667 539.333L610.333 539.667L609.667 539.333M1089 539L1089 540L1092 540L1089 539M608 540L609 541L608 540M1092 540L1093 541L1092 540M607 541L608 542L607 541M1093 541L1094 542L1093 541M606 542L607 543L606 542M1094 542L1095 543L1094 542M604.667 543.333L605.333 543.667L604.667 543.333M1095 543L1096 544L1095 543M603 544L604 545L603 544M602 545L603 546L602 545M1098 545L1099 546L1098 545M600.667 546.333L601.333 546.667L600.667 546.333M1099 546L1100 547L1099 546M599 547L600 548L599 547M1100.67 547.333L1101.33 547.667L1100.67 547.333M598 548L599 549L598 548M1102 548L1103 549L1102 548M596.667 549.333L597.333 549.667L596.667 549.333M1103 549L1104 550L1103 549M595 550L596 551L595 550M1104.67 550.333L1105.33 550.667L1104.67 550.333M594 551L595 552L594 551M1106 551L1107 552L1106 551M593 552L594 553L593 552M1107 552L1108 553L1107 552M592 553L593 554L592 553M1108 553L1109 554L1108 553M590.667 554.333L591.333 554.667L590.667 554.333M1109.67 554.333L1110.33 554.667L1109.67 554.333M589 555L590 556L589 555M1111 555L1112 556L1111 555M588 556L589 557L588 556M1112 556L1113 557L1112 556M587 557L588 558L587 557M1113 557L1114 558L1113 557M585.667 558.333L586.333 558.667L585.667 558.333M1114.67 558.333L1115.33 558.667L1114.67 558.333M584 559L585 560L584 559M1116 559L1117 560L1116 559M583 560L584 561L583 560M1117 560L1118 561L1117 560M582 561L583 562L582 561M1118 561L1119 562L1118 561M580 562L580 564L582 562L580 562M1119 562L1120 563L1119 562M1120 563L1121 564L1120 563M574 569L580 564L574 569M1121 564L1122 565L1121 564M1122.67 565.333L1123.33 565.667L1122.67 565.333M1124 566L1125 567L1124 566M1125 567L1126 568L1125 567M1126 568L1127 569L1126 568M573 569L574 570L573 569M1127 569L1128 570L1127 569M572 570L573 571L572 570M1128 570L1129 571L1128 570M571 571L572 572L571 571M1129 571L1130 572L1129 571M570 572L571 573L570 572M1130 572L1131 573L1130 572M569 573L570 574L569 573M1131 573L1132 574L1131 573M568 574L569 575L568 574M1132 574L1133 575L1132 574M567 575L568 576L567 575M1133 575L1134 576L1133 575M566 576L567 577L566 576M1134 576L1135 577L1134 576M565 577L566 578L565 577M1135 577L1136 578L1135 577z"/>
<path style="fill:#d5c8d8; stroke:none;" d="M484.108 579.028C470.684 586.469 490.172 608.363 501.96 601.633C508.022 598.171 516.689 585.712 508.387 580.028C504.53 577.387 499.193 580.225 495 579.674C491.3 579.189 487.792 576.987 484.108 579.028z"/>
<path style="fill:#ca8e63; stroke:none;" d="M564 578L565 579L564 578M1136 578L1137 579L1136 578M563 579L564 580L563 579M1137 579L1138 580L1137 579z"/>
<path style="fill:#d5c8d8; stroke:none;" d="M1212 579.796C1196.72 581.696 1209.25 606.911 1222 604.642C1230.67 603.1 1241.68 588.889 1232.85 581.438C1228.35 577.636 1224.8 581.685 1220 581.513C1217.22 581.414 1214.84 579.443 1212 579.796z"/>
<path style="fill:#ca8e63; stroke:none;" d="M562 580L563 581L562 580M1138 580L1139 581L1138 580M561 581L562 582L561 581M1139 581L1140 582L1139 581M560 582L561 583L560 582M1140 582L1141 583L1140 582M559 583L560 584L559 583M1141 583L1142 584L1141 583M558 584L559 585L558 584M1142 584L1143 585L1142 584M557 585L558 586L557 585M1143 585L1144 586L1143 585M556 586L557 587L556 586M1144 586L1145 587L1144 586M555 587L556 588L555 587M1145 587L1146 588L1145 587M554 588L555 589L554 588M1146 588L1146 590L1148 590L1146 588M553 589L554 590L553 589M552.333 590.667L552.667 591.333L552.333 590.667M1148 590L1149 591L1148 590M1149 591L1150 592L1149 591M550 592L550 594L552 592L550 592M1150.33 592.667L1150.67 593.333L1150.33 592.667M549 594L550 595L549 594M1151 594L1152 595L1151 594M548 595L549 596L548 595M1152 595L1153 596L1152 595M547 596L548 597L547 596M1153 596L1154 597L1153 596M546 597L547 598L546 597M1154.33 597.667L1154.67 598.333L1154.33 597.667M545 598L546 599L545 598M1155 599L1156 600L1155 599M544 600L545 601L544 600M1156 600L1157 601L1156 600M543 601L544 602L543 601M1157 601L1158 602L1157 601M542 602L543 603L542 602M1158.33 602.667L1158.67 603.333L1158.33 602.667M541 603L542 604L541 603M540 604L541 605L540 604M1159 604L1160 605L1159 604M539 605L540 606L539 605M1160 605L1161 606L1160 605M1161 606L1162 607L1161 606M538 607L539 608L538 607M1162.33 607.667L1162.67 608.333L1162.33 607.667M537 608L538 609L537 608M536.333 609.667L536.667 610.333L536.333 609.667M1163 609L1164 610L1163 609M1164 610L1165 611L1164 610M534 611L534 613L536 611L534 611M1165 611L1166 612L1165 611M1166.33 612.667L1166.67 613.333L1166.33 612.667M533.333 613.667L533.667 614.333L533.333 613.667M1167 614L1168 615L1167 614M532 615L533 616L532 615M1168 615L1169 616L1168 615M531 616L532 617L531 616M1169 616L1171 619L1169 616M530 617L531 618L530 617M529.333 618.667L529.667 619.333L529.333 618.667M1171 619L1172 620L1171 619M528 620L529 621L528 620M1172 620L1173 621L1172 620M527 621L528 622L527 621M1173.33 621.667L1173.67 622.333L1173.33 621.667M526 622L527 623L526 622M1174 623L1175 624L1174 623M525.333 624.667L525.667 625.333L525.333 624.667M1175.33 624.667L1175.67 625.333L1175.33 624.667M524 626L525 627L524 626M1176 626L1177 627L1176 626M523 627L524 628L523 627M1177 627L1177 630L1178 630L1177 627M522.333 628.667L522.667 629.333L522.333 628.667M521 630L522 631L521 630M1178 630L1179 631L1178 630M520.333 631.667L520.667 632.333L520.333 631.667M1179 631L1180 632L1179 631M1180 632L1181 633L1180 632M519 633L520 634L519 633M1181.33 633.667L1181.67 634.333L1181.33 633.667M518.333 634.667L518.667 635.333L518.333 634.667M1182.33 635.667L1182.67 636.333L1182.33 635.667M517.333 636.667L517.667 637.333L517.333 636.667M1183 637L1184 638L1183 637M516 638L517 639L516 638M1184 638L1185 639L1184 638M515 639L516 640L515 639M1185.33 639.667L1185.67 640.333L1185.33 639.667M514.333 640.667L514.667 641.333L514.333 640.667M1186.33 641.667L1186.67 642.333L1186.33 641.667M513.333 642.667L513.667 643.333L513.333 642.667M1187.33 643.667L1187.67 644.333L1187.33 643.667M512.333 644.667L512.667 645.333L512.333 644.667M1188 645L1189 646L1188 645M511 646L512 647L511 646M1189 646L1189 649L1190 649L1189 646M510.333 647.667L510.667 648.333L510.333 647.667M509.333 649.667L509.667 650.333L509.333 649.667M1190 649L1193 653L1190 649M508.333 651.667L508.667 652.333L508.333 651.667M507 653L508 654L507 653M1193.33 653.667L1193.67 654.333L1193.33 653.667M506.333 654.667L506.667 655.333L506.333 654.667M1194 655L1194 658L1195 658L1194 655M505 656L505 659L506 659L505 656M1195 658L1196 659L1195 658M504.333 659.667L504.667 660.333L504.333 659.667M1196 659L1197 660L1196 659M503 661L504 662L503 661M1197 661L1198 662L1197 661M502 662L502 665L503 665L502 662M1198 663L1199 667L1200 667L1198 663M501.333 665.667L501.667 666.333L501.333 665.667M500.333 667.667L500.667 668.333L500.333 667.667M1200.33 667.667L1200.67 668.333L1200.33 667.667M499 669L500 670L499 669M1201.33 669.667L1201.67 670.333L1201.33 669.667M498.333 670.667L498.667 671.333L498.333 670.667M1202.33 671.667L1202.67 672.333L1202.33 671.667M497 672L497 675L498 675L497 672M1203.33 673.667L1203.67 674.333L1203.33 673.667M496.333 675.667L496.667 676.333L496.333 675.667M1204.33 675.667L1204.67 676.333L1204.33 675.667M495.333 677.667L495.667 678.333L495.333 677.667M1205 677L1206 683L1207 683L1205 677M494 679L495 680L494 679M493 681L493 684L494 684L493 681M1207 683L1208 684L1207 683M492 684L492 687L493 687L492 684M1208.33 684.667L1208.67 685.333L1208.33 684.667M1209 686L1209 689L1210 689L1209 686M491 688L492 689L491 688M490 689L490 692L491 692L490 689M1210 690L1210 693L1211 693L1210 690M489 692L488 697L489 697L489 692M1211.33 693.667L1211.67 694.333L1211.33 693.667z"/>
<path style="fill:#d5c8d8; stroke:none;" d="M389.043 695.668C374.829 699.95 390.853 723.56 402 719.962C409.429 717.564 420.335 704.979 412.566 697.514C409.931 694.981 392.679 694.573 389.043 695.668z"/>
<path style="fill:#ca8e63; stroke:none;" d="M1212 695L1213 696L1212 695M487.333 697.667L487.667 698.333L487.333 697.667M1213 697L1213 700L1214 700L1213 697M486 699L486 703L487 703L486 699M1214 700L1214 703L1215 703L1214 700M485 703L485 707L486 707L485 703M1215.33 703.667L1215.67 704.333L1215.33 703.667M1216 705L1216 708L1217 708L1216 705M484 707L483 710L484 707M1217 708L1217 712L1218 712L1217 708M482 710L482 713L483 713L482 710M1218 712L1218 716L1219 716L1218 712M481 715L481 720L482 720L481 715M1219.33 716.667L1219.67 717.333L1219.33 716.667M1220.33 718.667L1220.67 719.333L1220.33 718.667z"/>
<path style="fill:#d5c8d8; stroke:none;" d="M1272.23 718.743C1259.71 724.45 1276.41 747.282 1288 742.617C1295.3 739.679 1306.45 725.278 1295.89 719.322C1291.15 716.65 1287.63 720.834 1283 720.343C1279.2 719.94 1276.26 716.903 1272.23 718.743z"/>
<path style="fill:#ca8e63; stroke:none;" d="M480 720L480 723L481 723L480 720M1221 720L1222 731L1223 731L1221 720M479 723L478 730L479 730L479 723M477 731L477 737L478 737L477 731M1223 732L1224 733L1223 732M1224 734L1225 735L1224 734M1225 736L1225 742L1226 742L1225 736M476 737L476 742L477 742L476 737M475 742L474 754L475 754L475 742M1226 743L1226 750L1227 750L1226 743M1227 751L1227 754L1228 754L1227 751M1228 754L1228 758L1229 758L1228 754M473 755L473 765L474 765L473 755M1229 758L1229 763L1230 763L1229 758M472 766L472 774L473 774L472 766M1230 766L1230 777L1231 777L1230 766M1231 777L1231 784L1232 784L1231 777M471 778L471 809L472 809L471 778M1232 785L1232 796L1233 796L1232 785M853 1013C856.828 1009.14 854.768 1004.91 854.156 1000C852.956 990.365 852 980.713 852 971C852 926.915 846.074 883.028 846 839C845.979 826.658 844.317 814.322 844.015 802C843.9 797.324 845.029 791.131 838.981 790.148C835.813 789.633 830.055 789.277 828.028 792.318C825.456 796.175 827.881 802.73 827.985 807C828.287 819.315 828.937 831.725 829.001 844C829.151 872.906 832.936 902.164 834.911 931C836.025 947.27 834.802 963.796 836.714 980C837.306 985.013 836.515 990.254 838.653 995C841.645 1001.64 848.638 1007.11 853 1013z"/>
<path style="fill:#d5c8d8; stroke:none;" d="M852 1006C850.859 950.706 847.689 895.169 843.911 840C843.178 829.305 843.001 818.747 843 808C843 804.137 844.061 797.76 842.208 794.228C840.634 791.23 833.992 791.288 831.318 792.603C827.645 794.411 828.985 801.673 829.001 805C829.059 816.976 830.635 829.031 830.986 841C831.858 870.731 834.88 900.342 836.911 930C837.728 941.931 835.883 954.114 837.286 966C838.941 980.029 836.956 998.837 852 1006z"/>
<path style="fill:#ca8e63; stroke:none;" d="M1080 794L1080 795L1087 795L1080 794M1095 794L1095 795L1105 795L1095 794M584 796L584 797L626 797C614.117 792.013 596.659 796 584 796M874 807L875 807C875.004 801.446 874.784 797.296 881 796C873.229 792.991 874 801.88 874 807M1064 795L1064 796L1076 796L1064 795M1106 795L1106 796L1120 796L1106 795M881 796L881 797L885 797L881 796M1056 796L1056 797L1064 797L1056 796M1120 796L1120 797L1126 797L1120 796M579 797L579 798L583 798L579 797M626 797L626 798L629 798L626 797M793 797L793 798L796 799L793 797M885.667 797.333L886.333 797.667L885.667 797.333M1053 797L1053 798L1056 798L1053 797M1127.67 797.333L1128.33 797.667L1127.67 797.333M576 798L576 799L579 799L576 798M630.667 798.333L631.333 798.667L630.667 798.333M791 798L792 799L791 798M887.667 798.333L888.333 798.667L887.667 798.333M1050.67 798.333L1051.33 798.667L1050.67 798.333M1129.67 798.333L1130.33 798.667L1129.67 798.333M571 799L571 800L575 800L571 799M633 799L633 800L637 800L633 799M789.667 799.333L790.333 799.667L789.667 799.333M796 799L796 809L797 809L796 799M889 799L889 800L892 800L889 799M1045 799L1045 800L1050 800L1045 799M1131 799L1131 800L1135 800L1131 799M1233 799L1233 829L1234 829L1233 799M564 800L564 801L570 801L564 800M638 800L638 801L643 801L638 800M786 800L786 801L789 801L786 800M893.667 800.333L894.333 800.667L893.667 800.333M1041 800L1041 801L1045 801L1041 800M1135 800L1135 801L1140 801L1135 800M562.667 801.333L563.333 801.667L562.667 801.333M643 801L643 802L646 802L643 801M784.667 801.333L785.333 801.667L784.667 801.333M895.667 801.333L896.333 801.667L895.667 801.333M1038 801L1038 802L1041 802L1038 801M1140 801L1140 802L1143 802L1140 801M560.667 802.333L561.333 802.667L560.667 802.333M646.667 802.333L647.333 802.667L646.667 802.333M782.667 802.333L783.333 802.667L782.667 802.333M897 802L898 803L897 802M1036.67 802.333L1037.33 802.667L1036.67 802.333M1143 802L1144 803L1143 802M556 803L556 804L559 804L556 803M649 803L649 804L652 804L649 803M780.667 803.333L781.333 803.667L780.667 803.333M899.667 803.333L900.333 803.667L899.667 803.333M1032 803L1032 804L1036 804L1032 803M1145 803L1145 804L1149 804L1145 803M553 804L553 805L556 805L553 804M652 804L652 805L655 805L652 804M778.667 804.333L779.333 804.667L778.667 804.333M901 804L901 805L904 805L901 804M1029 804L1029 805L1032 805L1029 804M1149 804L1149 805L1153 806L1153 805L1149 804M551.667 805.333L552.333 805.667L551.667 805.333M655.667 805.333L656.333 805.667L655.667 805.333M776.667 805.333L777.333 805.667L776.667 805.333M904 805L905 806L904 805M1027.67 805.333L1028.33 805.667L1027.67 805.333M548 806L548 807L551 807L548 806M657 806L657 807L660 807L657 806M774.667 806.333L775.333 806.667L774.667 806.333M905.667 806.333L906.333 806.667L905.667 806.333M1025.67 806.333L1026.33 806.667L1025.67 806.333M1153.67 806.333L1154.33 806.667L1153.67 806.333M544 807L544 808L548 808L544 807M660 807L660 808L665 809L660 807M772.667 807.333L773.333 807.667L772.667 807.333M875 807L875 829L876 829L875 807M907 807L907 808L910 808L907 807M1021 807L1021 808L1024 808L1021 807M1156 807L1156 808L1159 808L1156 807M540 811L544 808L540 811M771 808L772 809L771 808M910 808L913 810L910 808M1019.67 808.333L1020.33 808.667L1019.67 808.333M1159 808L1160 809L1159 808M665 809L668 811L665 809M770 809L771 810L770 809M1018 809L1019 810L1018 809M1160 809L1163 811L1160 809M472 810L472 818L473 818L472 810M768.667 810.333L769.333 810.667L768.667 810.333M913 810L914 811L913 810M1016.67 810.333L1017.33 810.667L1016.67 810.333M536 811L536 812L540 812L536 811M669 811L669 812L672 812L669 811M766.667 811.333L767.333 811.667L766.667 811.333M797 811L799 860L800 860C800 845.927 802.441 823.967 797 811M914 811L914 812L917 812L914 811M1012 811L1012 812L1015 812L1012 811M1164 811L1164 812L1168 813L1168 812L1164 811M535 812L536 813L535 812M672 812L673 813L672 812M765 812L766 813L765 812M917.667 812.333L918.333 812.667L917.667 812.333M1009 814L1012 812L1009 814M533.667 813.333L534.333 813.667L533.667 813.333M673.667 813.333L674.333 813.667L673.667 813.333M764 813L765 814L764 813M919 813L920 814L919 813M1168 813L1169 814L1168 813M532 814L533 815L532 814M675 814L676 815L675 814M762.667 814.333L763.333 814.667L762.667 814.333M920 814L921 815L920 814M1008 814L1009 815L1008 814M1169.67 814.333L1170.33 814.667L1169.67 814.333M529 815L529 816L532 816L529 815M677.667 815.333L678.333 815.667L677.667 815.333M761 815L762 816L761 815M921.667 815.333L922.333 815.667L921.667 815.333M1005 815L1005 816L1008 816L1005 815M1171.67 815.333L1172.33 815.667L1171.67 815.333M528 816L529 817L528 816M679 816L680 817L679 816M760 816L761 817L760 816M923.667 816.333L924.333 816.667L923.667 816.333M1004 816L1005 817L1004 816M1173.67 816.333L1174.33 816.667L1173.67 816.333M527 817L528 818L527 817M680 817L681 818L680 817M758 817L759 818L758 817M925 817L926 818L925 817M1002 817L1003 818L1002 817M1175 817L1176 818L1175 817M525.667 818.333L526.333 818.667L525.667 818.333M682 818L683 819L682 818M757 818L758 819L757 818M926 818L927 819L926 818M1001 818L1002 819L1001 818M1176 818L1177 819L1176 818M522 821L525 819L522 821M683.667 819.333L684.333 819.667L683.667 819.333M756 819L757 820L756 819M927.667 819.333L928.333 819.667L927.667 819.333M999.667 819.333L1000.33 819.667L999.667 819.333M1177.67 819.333L1178.33 819.667L1177.67 819.333M473 820L473 829L474 829L473 820M685 820L686 821L685 820M755 820L756 821L755 820M929 820L930 821L929 820M998 820L999 821L998 820M1179 820L1180 821L1179 820M521 821L522 822L521 821M686 821L687 822L686 821M754 821L755 822L754 821M930 821L931 822L930 821M1180 821L1181 822L1180 821M520 822L521 823L520 822M687.667 822.333L688.333 822.667L687.667 822.333M753 822L754 823L753 822M931.667 822.333L932.333 822.667L931.667 822.333M995.667 822.333L996.333 822.667L995.667 822.333M1182 822L1183 823L1182 822M518.667 823.333L519.333 823.667L518.667 823.333M689.667 823.333L690.333 823.667L689.667 823.333M752 823L753 824L752 823M933 823L934 824L933 823M993.667 823.333L994.333 823.667L993.667 823.333M1183 823L1184 824L1183 823M517 824L518 825L517 824M691 824L692 825L691 824M751 824L752 825L751 824M934 824L935 825L934 824M992 824L993 825L992 824M516 825L517 826L516 825M692 825L693 826L692 825M750 825L751 826L750 825M935 825L936 826L935 825M991 825L992 826L991 825M1185 825L1186 826L1185 825M515 826L516 827L515 826M693 826L694 827L693 826M749 826L750 827L749 826M936 826L937 827L936 826M990 826L991 827L990 826M1186 826L1187 827L1186 826M514 827L515 828L514 827M694 827L697 830L694 827M748 827L749 828L748 827M937 827L938 828L937 827M988.667 827.333L989.333 827.667L988.667 827.333M1188 827L1189 828L1188 827M513 828L514 829L513 828M747 828L748 829L747 828M938 828L939 829L938 828M987 828L988 829L987 828M1189 828L1190 829L1189 828M512 829L513 830L512 829M746 829L745 832L746 829M939 829L940 830L939 829M986 829L987 830L986 829M1190 829L1191 830L1190 829M511 830L512 831L511 830M697.667 830.333L698.333 830.667L697.667 830.333M875 830L876 831L875 830M940 830L941 831L940 830M985 830L986 831L985 830M1191 830L1192 831L1191 830M474 831L474 835L475 835L474 831M510 831L511 832L510 831M699 831L700 832L699 831M941 831L942 832L941 831M984 831L985 832L984 831M1192 831L1193 832L1192 831M509 832L510 833L509 832M700 832L701 833L700 832M744 832L745 833L744 832M876 832L876 857L877 857L876 832M942 832L943 833L942 832M983.333 832.667L983.667 833.333L983.333 832.667M1193 832L1194 833L1193 832M1232.33 832.667L1232.67 833.333L1232.33 832.667M508 833L509 834L508 833M701 833L702 834L701 833M743 833L744 834L743 833M943 833L944 834L943 833M1194 833L1195 834L1194 833M507 834L508 835L507 834M702 834L703 835L702 834M944 834L947 837L944 834M982 834L983 835L982 834M1195 834L1196 835L1195 834M1231.33 834.667L1231.67 835.333L1231.33 834.667M475 835L476 836L475 835M506.333 835.667L506.667 836.333L506.333 835.667M703 835L704 836L703 835M742 835L743 836L742 835M981 835L982 836L981 835M1196 835L1197 836L1196 835M476 836L477 837L476 836M704 836L705 837L704 836M741 836L742 837L741 836M980 836L981 837L980 836M1197 836L1198 837L1197 836M1230.33 836.667L1230.67 837.333L1230.33 836.667M477 837L480 840L477 837M505 837L506 838L505 837M705 837L706 838L705 837M740 837L740 840L741 840L740 837M947 837L948 838L947 837M979 837L979 840L980 840L979 837M1198 837L1199 838L1198 837M504 838L505 839L504 838M587 838L587 839L591 839L587 838M593 838L593 839L605 839L593 838M706 838L707 839L706 838M948 838L951 841L948 838M1199 838L1200 839L1199 838M1229 838L1230 839L1229 838M503 839L504 840L503 839M584.667 839.333L585.333 839.667L584.667 839.333M606 839L606 840L609 840L606 839M707 839L708 840L707 839M1200 839L1201 840L1200 839M1228 839L1229 840L1228 839M480 840L481 841L480 840M502 840L501 842L503 842L502 840M580 840L580 841L583 841L580 840M609 840L609 841L612 841L609 840M708 840L709 841L708 840M739 840L740 841L739 840M978 840L979 841L978 840M1201.33 840.667L1201.67 841.333L1201.33 840.667M1227 840L1228 841L1227 840M481 841L482 842L481 841M573 841L573 842L579 842L573 841M613 841L613 842L620 842L613 841M709 841L710 842L709 841M738.333 841.667L738.667 842.333L738.333 841.667M951 841L952 842L951 841M1223 842L1223 843L1227 842L1223 842M482.667 842.333L483.333 842.667L482.667 842.333M500 842L501 843L500 842M570.667 842.333L571.333 842.667L570.667 842.333M621.667 842.333L622.333 842.667L621.667 842.333M710 842L711 843L710 842M952 842L953 843L952 842M1202.67 842.333L1203.33 842.667L1202.67 842.333M484 843L485 844L484 843M488 845L488 846L500 844L488 845M568 843L569 844L568 843M624 843L625 844L624 843M711 843L712 844L711 843M737.333 843.667L737.667 844.333L737.333 843.667M953 843L954 844L953 843M975 843L975 845L977 843L975 843M1204.67 843.333L1205.33 843.667L1204.67 843.333M1221.67 843.333L1222.33 843.667L1221.67 843.333M485 844L485 845L488 845L485 844M566.667 844.333L567.333 844.667L566.667 844.333M625.667 844.333L626.333 844.667L625.667 844.333M712 844L712 846L714 846L712 844M954 844L955 845L954 844M1206 844L1207 845L1206 844M1219.67 844.333L1220.33 844.667L1219.67 844.333M563.667 845.333L564.333 845.667L563.667 845.333M627 845L627 846L630 846L627 845M736 845L737 846L736 845M955 845L956 846L955 845M974 845L975 846L974 845M1207 845L1207 846L1210 846L1207 845M1216 845L1216 846L1219 846L1216 845M560 846L560 847L563 847L560 846M631 846L632 847L631 846M714 846L715 847L714 846M735 846L736 847L735 846M957.667 846.333L958.333 846.667L957.667 846.333M971.667 846.333L972.333 846.667L971.667 846.333M559 847L560 848L559 847M632.667 847.333L633.333 847.667L632.667 847.333M715.667 847.333L716.333 847.667L715.667 847.333M733.667 847.333L734.333 847.667L733.667 847.333M960.667 847.333L961.333 847.667L960.667 847.333M968.667 847.333L969.333 847.667L968.667 847.333M557.667 848.333L558.333 848.667L557.667 848.333M634 848L635 849L634 848M717 848L718 849L717 848M732 848L733 849L732 848M963 848L963 849L967 849L963 848M555.667 849.333L556.333 849.667L555.667 849.333M636.667 849.333L637.333 849.667L636.667 849.333M718.667 849.333L719.333 849.667L718.667 849.333M730.667 849.333L731.333 849.667L730.667 849.333M554 850L555 851L554 850M638 850L639 851L638 850M722 850L722 851L729 851L722 850M553 851L554 852L553 851M639 851L640 852L639 851M551.667 852.333L552.333 852.667L551.667 852.333M640.667 852.333L641.333 852.667L640.667 852.333M549.667 853.333L550.333 853.667L549.667 853.333M642.667 853.333L643.333 853.667L642.667 853.333M548 854L549 855L548 854M644 854L645 855L644 854M547 855L548 856L547 855M645 855L646 856L645 855M546 856L547 857L546 856M646 856L647 857L646 856M543 859L546 857L543 859M647 857L653 863L647 857M542 859L543 860L542 859M541 860L542 861L541 860M877 860L879 921L880 921L879.004 884L877 860M540.333 861.667L540.667 862.333L540.333 861.667M539 863L540 864L539 863M653 863L654 864L653 863M537 864L537 866L539 864L537 864M654 864L655 865L654 864M655 865L656 866L655 865M800 865L800 878L801 878L800 865M536 866L537 867L536 866M656.333 866.667L656.667 867.333L656.333 866.667M535 867L536 868L535 867M534 868L535 869L534 868M657.333 868.667L657.667 869.333L657.333 868.667M533.333 869.667L533.667 870.333L533.333 869.667M583 869.532C571.569 872.237 561.873 881.38 555.835 891.004C554.242 893.543 549.06 901.082 552.619 903.782C556.588 906.793 568.981 904.744 574 905.089C587.187 905.998 601.383 908.749 614 912.623C619.199 914.219 628.457 919.983 633.852 919.006C637.658 918.317 636.994 912.798 637 910C637.019 900.587 637.213 893.218 631.965 885C622.141 869.617 599.862 865.543 583 869.532M658 870L659 871L658 870M532 871L533 872L532 871M659.333 871.667L659.667 872.333L659.333 871.667M531 872L532 873L531 872M530 873L531 874L530 873M660.333 873.667L660.667 874.333L660.333 873.667M529.333 875.667L529.667 876.333L529.333 875.667M661.333 875.667L661.667 876.333L661.333 875.667M528.333 877.667L528.667 878.333L528.333 877.667M662.333 877.667L662.667 878.333L662.333 877.667M527 879L528 880L527 879M663 879L664 880L663 879M800 879L801 891L802 891L800 879M526 880L527 881L526 880M664.333 880.667L664.667 881.333L664.333 880.667M525 881L525 884L526 884L525 881M665 883L665 888L666 888L665 883M524 884L524 887L525 887L524 884M523.333 887.667L523.667 888.333L523.333 887.667M666 888L666 891L667 891L666 888M522.333 889.667L522.667 890.333L522.333 889.667M667.333 891.667L667.667 892.333L667.333 891.667M521 892L521 896L522 896L521 892M802 892L803 938L804 938C804 924.635 807.187 904.361 802 892M668 894L668 899L669 899L668 894M520 897L520 902L521 902L520 897z"/>
<path style="fill:#d5c8d8; stroke:none;" d="M567 900L567 902L575 902L575 900L567 900z"/>
<path style="fill:#ca8e63; stroke:none;" d="M669 900L669 911L670 911L669 900M519 902L516 909C519.075 907.306 520.285 905.421 519 902M509 910L509 911L516 910L509 910M504 911L504 912L508 912L504 911M501 912L501 913L504 913L501 912M499.667 913.333L500.333 913.667L499.667 913.333M496 914L496 915L499 915L496 914M668 914L668 918L669 918L668 914M492 915L492 916L496 916L492 915M489.667 916.333L490.333 916.667L489.667 916.333M488 917L489 918L488 917M485 918L485 919L488 919L485 918M482 919L482 920L485 920L482 919M667.333 919.667L667.667 920.333L667.333 919.667M480 920L481 921L480 920M478.667 921.333L479.333 921.667L478.667 921.333M666 921L666 924L667 924L666 921M475 922L475 923L478 923L475 922M880 922L880 943L881 943L880 922M473.667 923.333L474.333 923.667L473.667 923.333M665 924L665 929L666 929L665 924M470 925L471 926L470 925M467.667 926.333L468.333 926.667L467.667 926.333M465.667 927.333L466.333 927.667L465.667 927.333z"/>
<path style="fill:#d5c8d8; stroke:none;" d="M956.059 928.832C953.649 929.661 951.755 932.206 953.086 934.725C954.571 937.535 958.374 937.377 960.397 939.563C963.225 942.621 962 949.173 962 953L962 981C962 984.807 961.12 990.319 963.318 993.681C965.347 996.786 968.981 995.24 972 995.379C979.032 995.701 985.915 998.713 992.999 996.005C1010.07 989.481 1013.22 956.44 996.996 947.417C992.93 945.155 987.668 943.602 983 944.214C980.166 944.585 976.072 947.195 973.407 945.211C970.452 943.011 972.327 937.174 971.656 934.019C970.446 928.33 960.92 927.159 956.059 928.832z"/>
<path style="fill:#ca8e63; stroke:none;" d="M462 929L463 930L462 929M664.333 929.667L664.667 930.333L664.333 929.667z"/>
<path style="fill:#d5c8d8; stroke:none;" d="M1068.32 930.028C1066.48 931.267 1065.88 933.752 1067.04 935.673C1068.36 937.851 1071.3 937.702 1072.97 939.483C1075.89 942.609 1075 948.09 1075 952C1075 963.176 1071.22 982.632 1075.74 992.866C1077.81 997.538 1082.15 995.35 1086 995.58C1095.2 996.131 1102.58 998.874 1110.96 993.045C1124.3 983.773 1125.07 955.388 1110 947.278C1106.25 945.259 1101.28 943.82 1097 944.12C1094.18 944.317 1090.18 946.781 1087.55 945.084C1084.25 942.951 1086.54 936.296 1085.57 933.059C1084 927.813 1072.31 927.34 1068.32 930.028z"/>
<path style="fill:#ca8e63; stroke:none;" d="M460.667 930.333L461.333 930.667L460.667 930.333M457.667 931.333L458.333 931.667L457.667 931.333M663 931L664 932L663 931M456 932L457 933L456 932M662 932L663 936L664 936L662 932M455 933L456 934L455 933M518 1209C514.272 1201 506.631 1195.46 503.21 1187C497.684 1173.34 498.24 1158.54 503.877 1145C506.563 1138.55 511.297 1132.77 513 1126C508.093 1126.35 502.612 1127.06 498.001 1124.84C494.454 1123.12 491.422 1119.97 488.963 1116.96C486.288 1113.68 483.339 1109.2 482.433 1105C480.591 1096.47 489.616 1087.33 498 1087.98C506.289 1088.63 513.857 1094.81 517.482 1102C519.734 1106.47 519.986 1111.1 520 1116C529.154 1112.89 537.265 1102.71 545 1096.8C557.458 1087.29 572.171 1079.13 587 1074L587 1072C573.147 1067.45 552.89 1040.57 576.001 1032.59C596.581 1025.48 606.797 1054.69 600 1069C605.397 1069.48 610.582 1067.28 616 1067.04C634.044 1066.24 651.98 1067.59 667 1078.76C675.636 1085.18 678.922 1095.75 687 1102C721.286 1030.77 663.537 951.714 593 936.669C516.646 920.383 434.151 963.537 403.525 1035C377.392 1095.98 406.625 1166.23 465 1195.35C478.611 1202.14 502.48 1212.92 518 1209M453.667 934.333L454.333 934.667L453.667 934.333M451.667 935.333L452.333 935.667L451.667 935.333M450 936L451 937L450 936M664 936L665 937L664 936M448.667 937.333L449.333 937.667L448.667 937.333M665 937L666 938L665 937M446.667 938.333L447.333 938.667L446.667 938.333M666 938L667 939L666 938M445 939L446 940L445 939M668 939L669 940L668 939M443.667 940.333L444.333 940.667L443.667 940.333M669 940L670 941L669 940M442 941L443 942L442 941M670 941L671 942L670 941M440.667 942.333L441.333 942.667L440.667 942.333M671.667 942.333L672.333 942.667L671.667 942.333M804 942L804 951L805 951L804 942M439 943L440 944L439 943M673 943L674 944L673 943M438 944L439 945L438 944M881 944L881 957L882 957L881 944z"/>
<path style="fill:#d5c8d8; stroke:none;" d="M1023 967L1023 968C1011.46 974.676 1007.82 989.099 1022 995.583C1030.62 999.521 1037.72 994.332 1046 994.437C1050.58 994.495 1054.14 997.455 1059 996.81C1066.23 995.852 1067.91 989.381 1067.98 983C1068.02 979.823 1067.73 974.419 1063.09 975.492C1057.58 976.767 1059.97 985.259 1055 988C1054.57 977.898 1058.55 959.816 1052.4 951.105C1040.3 933.984 1002.62 952.291 1023 967z"/>
<path style="fill:#ca8e63; stroke:none;" d="M437 945L438 946L437 945M674 945L675 946L674 945M435.667 946.333L436.333 946.667L435.667 946.333M675.667 946.333L676.333 946.667L675.667 946.333z"/>
<path style="fill:#d5c8d8; stroke:none;" d="M1154 980C1152.19 973.671 1146.7 965.593 1146.85 959.019C1146.93 955.045 1155.05 951.888 1151.95 947.742C1149.03 943.832 1122.97 944.236 1124.06 950.91C1124.7 954.813 1131.03 954.452 1133.3 957.184C1139.18 964.266 1142.42 977.407 1145.68 986C1147.05 989.586 1149.33 993.259 1147.21 996.999C1146.41 998.421 1145.19 999.804 1143.96 1000.86C1133.26 1010.02 1136.07 990.098 1126.05 995.194C1119.74 998.405 1121.19 1006.63 1126.06 1010.35C1134.13 1016.51 1146.02 1013.67 1152.7 1006.81C1162.78 996.46 1167.35 979.24 1172.32 966C1174.06 961.367 1187.02 950.965 1184.16 947.603C1181.54 944.515 1159.28 945.053 1157.85 949.213C1156.14 954.193 1162.38 953.319 1163.7 956.392C1165.63 960.894 1157.96 977.824 1154 980z"/>
<path style="fill:#ca8e63; stroke:none;" d="M434 947L435 948L434 947M677 947L678 948L677 947M433 948L434 949L433 948M678 948L679 949L678 948M432 949L433 950L432 949M679 949L680 950L679 949M430.667 950.333L431.333 950.667L430.667 950.333M680 950L681 951L680 950M429 951L430 952L429 951M681 951L682 952L681 951M428 952L429 953L428 952M682 952L683 953L682 952M427 953L428 954L427 953M683 953L684 954L683 953z"/>
<path style="fill:#78e4cd; stroke:none;" d="M983.001 953.62C966.731 956.167 968.24 990.538 985 988.731C1002.03 986.895 1000.79 950.835 983.001 953.62M1028 966C1031.51 966 1035.57 966.53 1038.98 965.566C1052.59 961.723 1035.52 946.333 1030.18 956.228C1028.77 958.832 1028.58 963.081 1028 966M1095 953.587C1080.79 957.298 1082.23 991.884 1099 988.541C1115.53 985.246 1113.49 948.759 1095 953.587z"/>
<path style="fill:#ca8e63; stroke:none;" d="M425 954L425 956L427 954L425 954M684 954L685 955L684 954M805 954L805 959L806 959L805 954M685 955L686 956L685 955M424 956L425 957L424 956M686 956L687 957L686 956M422.667 957.333L423.333 957.667L422.667 957.333M687 957L688 958L687 957M882 957L882 967L883 967L882 957M421 958L422 959L421 958M688 958L689 959L688 958z"/>
<path style="fill:#d1d974; stroke:none;" d="M1054 958L1055 959L1054 958z"/>
<path style="fill:#ca8e63; stroke:none;" d="M420 959L421 960L420 959M689 959L690 960L689 959M419 960L420 961L419 960M690.333 960.667L690.667 961.333L690.333 960.667M413 967L419 961L413 967M806 961L806 975L807 975L806 961M691 962L692 963L691 962M692 963L693 964L692 963M693 964L694 965L693 964M694 965L695 966L694 965M695 966L696 967L695 966M412 967L413 968L412 967M696.333 967.667L696.667 968.333L696.333 967.667M411 968L412 969L411 968M410 969L411 970L410 969M697.333 969.667L697.667 970.333L697.333 969.667M409 970L410 971L409 970M883 970L883 995L884 995L883 970M408 971L409 972L408 971M698 971L699 972L698 971M407 972L406 975L407 972M699 972L700 973L699 972M700.333 973.667L700.667 974.333L700.333 973.667z"/>
<path style="fill:#78e4cd; stroke:none;" d="M1037 974.433C1032.92 974.946 1027.32 975.534 1024.76 979.225C1020.79 984.954 1029.08 989.516 1034 988.71C1042.13 987.377 1049.03 972.92 1037 974.433z"/>
<path style="fill:#ca8e63; stroke:none;" d="M405 975L406 976L405 975M701 975L703 978L701 975M404 976L405 977L404 976M807 976L806 983L780 984L780 985C786.82 984.995 811.589 987.269 807 976M403 977L404 978L403 977M402 978L403 979L402 978M703 978L704 979L703 978M704.333 979.667L704.667 980.333L704.333 979.667M401 980L402 981L401 980M400 981L401 982L400 981M705.333 981.667L705.667 982.333L705.333 981.667M399 982L400 983L399 982M398 983L399 984L398 983M706.333 983.667L706.667 984.333L706.333 983.667M397.333 984.667L397.667 985.333L397.333 984.667M707 985L708 986L707 985M777 985L777 986L780 986L777 985M396 986L397 987L396 986M708.333 986.667L708.667 987.333L708.333 986.667M775 986L776 987L775 986M395 987L396 988L395 987M773 987L774 988L773 987M394.333 988.667L394.667 989.333L394.333 988.667M709.333 988.667L709.667 989.333L709.333 988.667M769 988L769 989L772 989L769 988M766.667 989.333L767.333 989.667L766.667 989.333M393.333 990.667L393.667 991.333L393.333 990.667M710.333 990.667L710.667 991.333L710.333 990.667M765 990L766 991L765 990M764 991L765 992L764 991M392 992L393 993L392 992M711 992L712 993L711 992M762.667 992.333L763.333 992.667L762.667 992.333M391 993L392 994L391 993M760 993L761 994L760 993M390.333 994.667L390.667 995.333L390.333 994.667M712.333 994.667L712.667 995.333L712.333 994.667M758.667 994.333L759.333 994.667L758.667 994.333M749 995L749 996L758 996L749 995M884 995L884 1038L885 1038C885 1025.78 888.711 1006.23 884 995M350 996L350 997L362 997L350 996M372 996L372 997L380 997L372 996M389 996L381 997L381 998C383.598 998.307 389.678 1000.11 389 996M713 996L713 999L714 999L713 996M742 996L742 997L748 997L742 996M343 998L343 999L350 998L343 998M739 997L739 998L742 998L739 997M738 998L739 999L738 998M340 999L340 1000L343 1000L340 999M714 999L715 1000L714 999M736.667 999.333L737.333 999.667L736.667 999.333M337 1000L337 1001L340 1001L337 1000M715.333 1000.67L715.667 1001.33L715.333 1000.67M733.667 1000.33L734.333 1000.67L733.667 1000.33M334.667 1001.33L335.333 1001.67L334.667 1001.33M732 1001L733 1002L732 1001M330 1003L330 1004L334 1003L330 1003M716.333 1002.67L716.667 1003.33L716.333 1002.67M731 1002L732 1003L731 1002M725 1008L731 1004L725 1008M327 1004L327 1005L330 1005L327 1004M325.667 1005.33L326.333 1005.67L325.667 1005.33M324 1006L325 1007L324 1006M717 1006C717.677 1010.24 720.853 1013.38 724 1009C720.335 1009.85 719.299 1008.8 717 1006M322.667 1007.33L323.333 1007.67L322.667 1007.33M321 1008L322 1009L321 1008M724 1008L725 1009L724 1008M319.667 1009.33L320.333 1009.67L319.667 1009.33M317.667 1010.33L318.333 1010.67L317.667 1010.33M316 1011L317 1012L316 1011M314 1012L314 1014L316 1012L314 1012M787 1013.64C772.738 1017.67 766.917 1029.96 781 1039.03C789.605 1044.57 802.291 1045.46 812 1042.7C823.807 1039.34 832.269 1027.89 819.96 1018.99C811.497 1012.87 797.058 1010.79 787 1013.64M312.667 1014.33L313.333 1014.67L312.667 1014.33M311 1015L312 1016L311 1015M310 1016L311 1017L310 1016M309 1017L310 1018L309 1017M308 1018L309 1019L308 1018M307 1019L308 1020L307 1019M306 1020L307 1021L306 1020M305 1021L306 1022L305 1021M304 1022L305 1023L304 1022M303 1023L302 1026L303 1023M357 1025.46C336.707 1029.12 319.778 1044.9 318.185 1066C316.577 1087.31 337.349 1110.16 359.941 1105.77C367.042 1104.39 364 1086.57 364 1081C364 1066.91 367.469 1053.71 370.258 1040C370.93 1036.7 375.066 1029.65 372.929 1026.6C370.616 1023.31 360.393 1024.85 357 1025.46M301 1026L302 1027L301 1026M300 1027L301 1028L300 1027M299.333 1028.67L299.667 1029.33L299.333 1028.67M298.333 1030.67L298.667 1031.33L298.333 1030.67M297.333 1032.67L297.667 1033.33L297.333 1032.67M296 1034L297 1035L296 1034M295.333 1035.67L295.667 1036.33L295.333 1035.67M294 1037L294 1040L295 1040L294 1037M883 1038L882 1048L883 1048L883 1038M293.333 1040.67L293.667 1041.33L293.333 1040.67z"/>
<path style="fill:#d5c8d8; stroke:none;" d="M1028 1058C1026.63 1053.66 1028.12 1043.76 1024.44 1041.03C1021.37 1038.75 1006.6 1038.44 1006.75 1044C1006.88 1048.65 1014.42 1048.22 1015.68 1053.02C1018.17 1062.5 1016 1075.21 1016 1085C1016 1088.36 1016.7 1092.89 1014.4 1095.69C1012.38 1098.13 1004.74 1098.98 1007.29 1103.7C1009.47 1107.73 1028.79 1107.33 1032.57 1105.4C1034.81 1104.25 1034.98 1101.37 1033.38 1099.58C1031.26 1097.21 1027.94 1097.26 1026.6 1093.94C1023.07 1085.17 1025.99 1060.91 1040 1064.19C1049.71 1066.47 1052.35 1087.36 1047.82 1094.77C1045.83 1098.04 1037.43 1097.85 1038.75 1102.88C1040.11 1108.07 1063.42 1108.02 1066.38 1104.56C1070.4 1099.85 1059.51 1097.04 1059.06 1092C1058.36 1084.11 1060.28 1075.71 1058.06 1068C1054.23 1054.72 1038.84 1052.94 1028 1058z"/>
<path style="fill:#ca8e63; stroke:none;" d="M292.333 1042.67L292.667 1043.33L292.333 1042.67M291.333 1044.67L291.667 1045.33L291.333 1044.67M290 1047L290 1051L291 1051L290 1047M745 1047C753.07 1076.95 791.406 1092.29 819 1079.55C826.845 1075.93 836.205 1071.12 840 1063C832.446 1063.41 826.355 1068.99 819 1070.61C792.152 1076.53 764.491 1068.37 747 1047L745 1047M881.333 1048.67L881.667 1049.33L881.333 1048.67M880 1050L880 1053L881 1053L880 1050M289 1052L289 1055L290 1055L289 1052z"/>
<path style="fill:#d5c8d8; stroke:none;" d="M750 1053C751.222 1062.14 759.654 1068.72 767 1073.36C785.706 1085.18 817.849 1087.35 833 1068C822.04 1068.73 811.512 1074.39 800 1074.9C780.495 1075.75 764.204 1064.64 750 1053z"/>
<path style="fill:#ca8e63; stroke:none;" d="M879 1054L879 1057L880 1057L879 1054M288 1055L288 1058L289 1058L288 1055z"/>
<path style="fill:#d5c8d8; stroke:none;" d="M964 1083C957.95 1085.22 954.48 1107.29 962.133 1108.57C965.192 1109.09 967.942 1106.74 971 1106.79C981.225 1106.96 996.348 1110.53 999.517 1096C1001.16 1088.46 995.598 1084.53 995.576 1078C995.558 1072.26 1001.9 1062.09 996.397 1056.74C993.686 1054.11 989.297 1055.79 986 1055.62C976.021 1055.13 964.878 1054.9 960.228 1066C957.44 1072.66 962.019 1077.01 964 1083M1090 1055.47C1061.04 1060.93 1067 1112.97 1097 1108.29C1130.2 1103.12 1124.25 1049.01 1090 1055.47M1224 1055.53C1189.39 1063.52 1205.77 1121.11 1241 1105.78C1245.49 1103.82 1255.68 1093.95 1250.39 1088.6C1245.77 1083.93 1241.88 1091.02 1239.45 1093.9C1234.31 1099.97 1223.13 1100.79 1218.89 1092.83C1216.03 1087.45 1225.72 1085.77 1229 1084.55C1235.15 1082.28 1247.01 1082.77 1250.97 1076.61C1259.88 1062.74 1233.63 1053.31 1224 1055.53M1285 1055.47C1279.26 1056.53 1261.26 1054.1 1257.76 1058.44C1252.98 1064.36 1263.09 1064.86 1265.4 1067.45C1267.58 1069.9 1267 1073.98 1267 1077C1267 1081.99 1268.59 1090.42 1265.97 1094.85C1264.09 1098.04 1257.87 1097.74 1257.75 1102C1257.59 1108.06 1278.78 1107.62 1282.96 1106.33C1285.3 1105.61 1288.3 1103.25 1286.71 1100.5C1285.09 1097.69 1280.68 1098.2 1278.6 1095.69C1273.98 1090.11 1276.39 1072.31 1280.72 1067.13C1283 1064.4 1288.52 1061.46 1291.25 1065.44C1293.69 1068.99 1287.9 1072.72 1290.22 1076.57C1293.05 1081.25 1301.26 1078.73 1303.43 1074.81C1309.92 1063.08 1295.38 1053.54 1285 1055.47M1164 1079C1165.19 1085.3 1167.72 1114.2 1179.9 1106.24C1187.97 1100.96 1187.95 1084.4 1190.94 1076C1192.46 1071.72 1202.46 1062.79 1202.08 1060.09C1201.29 1054.43 1173.64 1053.7 1173.64 1060.96C1173.64 1065.17 1180.02 1065.28 1181.36 1069.06C1183.24 1074.38 1178.73 1081.18 1177 1086L1175 1086C1173.57 1079.75 1171.24 1050.37 1159.29 1057.03C1151.22 1061.53 1151.01 1080.8 1148 1089C1145.73 1084.91 1140.36 1071.83 1143.12 1067.41C1145.07 1064.27 1152.2 1065.92 1151.12 1060.1C1150.17 1055 1125.58 1054.49 1123.05 1058.43C1119.99 1063.2 1129.08 1066.8 1131.16 1070.02C1135.96 1077.48 1136.57 1089.5 1139.34 1098C1140.67 1102.07 1142.78 1107.62 1148 1107.49C1158.98 1107.22 1156.67 1084.79 1164 1079z"/>
<path style="fill:#ca8e63; stroke:none;" d="M878.333 1057.67L878.667 1058.33L878.333 1057.67M287 1059L287 1081L288 1081L287 1059M877.333 1059.67L877.667 1060.33L877.333 1059.67M876.333 1061.67L876.667 1062.33L876.333 1061.67M875 1063L874 1067L875 1067L875 1063z"/>
<path style="fill:#78e4cd; stroke:none;" d="M978.001 1063.76C963.398 1066.11 977.618 1078.73 986.848 1077.39C994.223 1076.32 984.954 1062.64 978.001 1063.76M1093 1063.87C1075.38 1068.07 1079.25 1103.94 1099 1098.57C1114.5 1094.35 1111.06 1059.57 1093 1063.87M1240 1071C1236.9 1060.87 1223.76 1062.11 1218.61 1070.04C1215.2 1075.29 1219.63 1076.72 1224 1075.5C1226.32 1074.85 1228.66 1074.33 1231 1073.76C1234.06 1073.03 1237.01 1071.97 1240 1071z"/>
<path style="fill:#ca8e63; stroke:none;" d="M873 1067L874 1068L873 1067M872.333 1068.67L872.667 1069.33L872.333 1068.67M871 1071L870 1074L871 1071z"/>
<path style="fill:#d5c8d8; stroke:none;" d="M360 1072L360 1075L361 1075L360 1072z"/>
<path style="fill:#ca8e63; stroke:none;" d="M869.333 1074.67L869.667 1075.33L869.333 1074.67M868 1076L868 1083L869 1083L868 1076z"/>
<path style="fill:#d5c8d8; stroke:none;" d="M360 1077L359 1096L361 1096L360 1077z"/>
<path style="fill:#ca8e63; stroke:none;" d="M288 1081L288 1084L289 1084L288 1081M729.339 1084.18C726.281 1085.57 723.947 1091.16 722.517 1094C717.504 1103.96 714.695 1114.98 709.731 1125C696.895 1150.92 677.659 1172.66 655 1190.48C624.108 1214.78 584.389 1234.08 545 1237.83C530.938 1239.17 514.959 1238.98 501 1237C495.662 1236.24 487.299 1232.26 482.439 1235.75C472.843 1242.64 468.375 1258.34 465.103 1269C456.064 1298.44 456.528 1333.01 469.984 1361C475.807 1373.11 483.352 1384.7 496 1390.67C526.027 1404.85 563.727 1385.92 560.907 1351C560.17 1341.88 556.316 1331.34 552.667 1323C550.674 1318.44 546.715 1313.09 546.553 1308C546.226 1297.72 559.382 1290.43 567.985 1294.84C582.717 1302.39 588.652 1327.35 596.051 1341C608.495 1363.96 627.531 1381.7 636.452 1407C649.358 1443.59 637.237 1506.14 688 1516.52C696.471 1518.25 707.391 1517.61 716 1516.91C723.075 1516.33 731.502 1512.67 738 1509.85C744.142 1507.17 749.759 1504 754.985 1499.79C785.427 1475.24 764.535 1440.51 751.694 1412C744.307 1395.6 734.361 1366.21 760 1359.61C777.343 1355.14 794.846 1373.4 803.491 1386C817.709 1406.72 823.807 1440.32 852 1446.61C858.154 1447.99 863.825 1447.59 870 1447.09C875.765 1446.61 881.69 1445.14 887 1442.74C893.973 1439.59 900.324 1435.26 905.985 1430.16C953.286 1387.54 901.727 1323.07 874.201 1284C867.887 1275.04 860.932 1266.43 853.919 1258C845.125 1247.42 834.968 1238.45 825 1229.04C815.43 1220 804.277 1211.91 793 1205.15C787.352 1201.77 779.285 1198.62 776.742 1192C773.663 1183.98 777.794 1176.55 781.911 1170C790.424 1156.45 800.918 1144.02 810.204 1131C812.577 1127.67 825.348 1114.88 822.825 1110.64C820.521 1106.77 803.894 1112.79 800 1112.96C782.145 1113.76 761.599 1106.86 747 1096.78C743.644 1094.46 733.296 1082.37 729.339 1084.18z"/>
<path style="fill:#78e4cd; stroke:none;" d="M967 1083L966 1084C967.17 1090.21 968.007 1096.26 975.001 1098.28C979.467 1099.56 991.77 1098.67 989.338 1091.1C987.509 1085.41 972.176 1084.23 967 1083z"/>
<path style="fill:#ca8e63; stroke:none;" d="M289 1084L289 1087L290 1087L289 1084M867 1084L867 1089L868 1089L867 1084M290 1087L290 1091L291 1091L290 1087M612 1090.47C582.184 1096.05 546.88 1116.29 531.428 1143C527.467 1149.85 524.1 1157.04 523.185 1165C519.776 1194.67 555.777 1202.38 578 1198.67C608.992 1193.51 642.6 1168.97 656.63 1141C659.492 1135.29 661.575 1129.31 662.561 1123C667.146 1093.63 634.598 1086.23 612 1090.47M866.333 1090.67L866.667 1091.33L866.333 1090.67M291.333 1092.67L291.667 1093.33L291.333 1092.67z"/>
<path style="fill:#d5c8d8; stroke:none;" d="M614 1092.63C581.848 1101.32 549.134 1116.57 531.829 1147C513.332 1179.52 544.974 1204.28 577 1196.24C608.429 1188.35 640.5 1169.34 655.074 1139C659.198 1130.41 662.857 1117.38 659.077 1108C652.773 1092.36 628.651 1088.67 614 1092.63z"/>
<path style="fill:#ca8e63; stroke:none;" d="M865 1092L864 1099L865 1099L865 1092M292 1094L293 1095L292 1094M293.333 1095.67L293.667 1096.33L293.333 1095.67M294 1097L294 1100L295 1100L294 1097M863.333 1099.67L863.667 1100.33L863.333 1099.67M295.333 1100.67L295.667 1101.33L295.333 1100.67M296 1102L297 1103L296 1102M862.333 1102.67L862.667 1103.33L862.333 1102.67M297 1103L298 1104L297 1103M298.333 1104.67L298.667 1105.33L298.333 1104.67M861.333 1104.67L861.667 1105.33L861.333 1104.67M299.333 1106.67L299.667 1107.33L299.333 1106.67M860 1106L860 1109L861 1109L860 1106M300 1108L301 1109L300 1108M301 1109L302 1110L301 1109M302 1110L303 1111L302 1110M859 1110L860 1111L859 1110M303 1111L304 1112L303 1111M585 1111.45C576.892 1112.53 551.39 1125.69 556.992 1136.71C561.767 1146.1 571.391 1144.11 578.624 1148.99C585.277 1153.48 587.702 1165.58 598 1163.59C616.37 1160.04 600.251 1144.1 598.333 1136C596.071 1126.44 602.715 1109.1 585 1111.45M304 1112L305 1113L304 1112M858 1112L859 1113L858 1112M305 1113L306 1114L305 1113z"/>
<path style="fill:#58412c; stroke:none;" d="M585.999 1113.46C578.221 1114.48 553.622 1126.58 559.913 1136.96C564.893 1145.18 573.365 1142.12 579.791 1146.74C586.009 1151.22 588.116 1163.05 597.996 1160.68C601.421 1159.86 604.525 1156.66 604.544 1153C604.576 1146.92 597.723 1142.41 595.782 1137C593.295 1130.06 601.882 1111.37 585.999 1113.46z"/>
<path style="fill:#ca8e63; stroke:none;" d="M857.333 1113.67L857.667 1114.33L857.333 1113.67M306 1114L307 1115L306 1114M307 1115L308 1116L307 1115M856 1115L856 1118L857 1118L856 1115M308 1116L309 1117L308 1116M309 1117L310 1118L309 1117M310 1118L311 1119L310 1118M855 1118L856 1119L855 1118M311 1119L312 1120L311 1119M854 1119L855 1120L854 1119M313 1120L314 1121L313 1120M853 1120L854 1121L853 1120M314 1121L315 1122L314 1121M316 1122L317 1123L316 1122M852.333 1122.67L852.667 1123.33L852.333 1122.67M317 1123L318 1124L317 1123M318.667 1124.33L319.333 1124.67L318.667 1124.33M851 1124L852 1125L851 1124M320.667 1125.33L321.333 1125.67L320.667 1125.33M322.667 1126.33L323.333 1126.67L322.667 1126.33M850 1126L851 1127L850 1126M849 1127L850 1128L849 1127M326 1128L327 1129L326 1128M848.333 1128.67L848.667 1129.33L848.333 1128.67M327 1129L327 1130L330 1130L327 1129M331 1130L331 1131L334 1131L331 1130M847 1130L848 1131L847 1130M334.667 1131.33L335.333 1131.67L334.667 1131.33M846.333 1131.67L846.667 1132.33L846.333 1131.67M336.667 1132.33L337.333 1132.67L336.667 1132.33M339 1133L339 1134L365 1136L339 1133M845 1133L846 1134L845 1133M365 1134L365 1135L373 1137L365 1134M844.333 1134.67L844.667 1135.33L844.333 1134.67M843 1136L844 1137L843 1136M373.333 1137.67L373.667 1138.33L373.333 1137.67M842 1137L843 1138L842 1137M841 1138L842 1139L841 1138M374 1139L374 1143L375 1143L374 1139M840.333 1139.67L840.667 1140.33L840.333 1139.67M839 1142L840 1143L839 1142M838 1143L839 1144L838 1143M375 1144L376 1145L375 1144M837 1144L836 1147L837 1144M376 1145L377 1146L376 1145M377.333 1146.67L377.667 1147.33L377.333 1146.67M835 1147L833 1151L835 1147M378 1148L378 1151L379 1151L378 1148M379 1151L380 1152L379 1151M832 1151L833 1152L832 1151M831.333 1152.67L831.667 1153.33L831.333 1152.67M380 1153L381 1154L380 1153M381 1154L382 1155L381 1154M830 1154L831 1155L830 1154M829 1155L830 1156L829 1155M382.333 1156.67L382.667 1157.33L382.333 1156.67M828.333 1156.67L828.667 1157.33L828.333 1156.67z"/>
<path style="fill:#d1d974; stroke:none;" d="M633 1157L634 1158L633 1157z"/>
<path style="fill:#ca8e63; stroke:none;" d="M383.333 1158.67L383.667 1159.33L383.333 1158.67M827 1158L828 1159L827 1158M826 1159L827 1160L826 1159M384 1160L385 1161L384 1160M825 1160L826 1161L825 1160M385.333 1161.67L385.667 1162.33L385.333 1161.67M824 1162L825 1163L824 1162M386 1163L389 1169L390 1169L386 1163M823 1163L824 1164L823 1163M822 1164L823 1165L822 1164M821 1165L822 1166L821 1165M820 1166L820 1169L821 1169L820 1166M390 1169L391 1170L390 1169M819 1169L820 1170L819 1169M818 1170L819 1171L818 1170M391 1171L392 1172L391 1171M817.333 1171.67L817.667 1172.33L817.333 1171.67M392 1172L393 1173L392 1172M393 1173L394 1174L393 1173M816 1173L817 1174L816 1173M394 1174L396 1177L394 1174M815 1174L816 1175L815 1174M814 1175L815 1176L814 1175M813.333 1176.67L813.667 1177.33L813.333 1176.67M396 1177L397 1178L396 1177M397 1178L398 1179L397 1178z"/>
<path style="fill:#d5c8d8; stroke:none;" d="M676 1178.75C663.977 1179.67 649.869 1197.31 639.83 1203.84C631.234 1209.44 622.171 1214.51 613 1219.09C607.912 1221.63 600.981 1223.23 597.894 1228.44C593.149 1236.45 591.21 1245.14 589.331 1254C575.014 1321.51 634.508 1373.99 700 1367.9C768.731 1361.5 807.93 1285.22 774.381 1226C754.819 1191.47 714.138 1175.86 676 1178.75z"/>
<path style="fill:#ca8e63; stroke:none;" d="M812 1178L813 1179L812 1178M398 1179L399 1180L398 1179M399 1180L400 1181L399 1180M811 1180L814 1183L811 1180M400 1181L401 1182L400 1181M401.333 1182.67L401.667 1183.33L401.333 1182.67z"/>
<path style="fill:#d1d974; stroke:none;" d="M671 1182L671 1184L673 1184L671 1182z"/>
<path style="fill:#ca8e63; stroke:none;" d="M814 1183L815 1184L814 1183M402 1184L403 1185L402 1184M815 1184L816 1185L815 1184M403 1185L404 1186L403 1185M816 1185L819 1187L816 1185M405 1187L406 1188L405 1187M819.667 1187.33L820.333 1187.67L819.667 1187.33M406 1188L407 1189L406 1188M821 1188L822 1189L821 1188M407 1189L408 1190L407 1189M822 1189L825 1191L822 1189M408 1190L409 1191L408 1190M409 1191L410 1192L409 1191M825 1191L826 1192L825 1191M410 1192L411 1193L410 1192M826.667 1192.33L827.333 1192.67L826.667 1192.33M411 1193L412 1194L411 1193M828 1193L829 1194L828 1193M412 1194L413 1195L412 1194M829 1194L830 1195L829 1194M413 1195L414 1196L413 1195M830.667 1195.33L831.333 1195.67L830.667 1195.33M414 1196L415 1197L414 1196M832 1196L833 1197L832 1196M415 1197L419 1200L415 1197M833 1197L834 1198L833 1197M834 1198L835 1199L834 1198M835 1199L836 1200L835 1199M419 1200L420 1201L419 1200M836 1200L837 1201L836 1200M420 1201L421 1202L420 1201M837 1201L840 1203L837 1201M421 1202L422 1203L421 1202M422.667 1203.33L423.333 1203.67L422.667 1203.33M840 1203L841 1204L840 1203M424 1204L425 1205L424 1204M841 1204L842 1205L841 1204M425 1205L426 1206L425 1205M842 1205L845 1207L842 1205M426.667 1206.33L427.333 1206.67L426.667 1206.33M428 1207L429 1208L428 1207M845 1207L846 1208L845 1207M429 1208L430 1209L429 1208M846 1208L847 1209L846 1208M431 1209L432 1210L431 1209M847 1209L850 1211L847 1209M432 1210L433 1211L432 1210M433.667 1211.33L434.333 1211.67L433.667 1211.33M850 1211L851 1212L850 1211M435 1212L436 1213L435 1212M851 1212L852 1213L851 1212M436 1213L437 1214L436 1213M852 1213L853 1214L852 1213M437 1214L437 1215L440 1215L437 1214M853 1214L854 1215L853 1214M440 1215L441 1216L440 1215M854 1215L855 1216L854 1215M441.667 1216.33L442.333 1216.67L441.667 1216.33M855 1216L856 1217L855 1216M443 1217L444 1218L443 1217M856 1217L857 1218L856 1217M444.667 1218.33L445.333 1218.67L444.667 1218.33M857 1218L858 1219L857 1218M447.667 1219.33L448.333 1219.67L447.667 1219.33M858 1219L859 1220L858 1219M449 1220L450 1221L449 1220M859 1220L860 1221L859 1220M450.667 1221.33L451.333 1221.67L450.667 1221.33M860 1221L861 1222L860 1221M452 1222L451 1227L452 1222M861 1222L862 1223L861 1222M862 1223L863 1224L862 1223M863 1224L864 1225L863 1224M864 1225L865 1226L864 1225M865 1226L866 1227L865 1226M450 1227L451 1228L450 1227M866 1227L867 1228L866 1227M449 1228L448 1232L449 1232L449 1228M867 1228L868 1229L867 1228M868 1229L869 1230L868 1229M869 1230L870 1231L869 1230M870 1231L871 1232L870 1231M447 1232L448 1233L447 1232M871 1232L873 1235L871 1232M446.333 1233.67L446.667 1234.33L446.333 1233.67M445.333 1235.67L445.667 1236.33L445.333 1235.67M873 1235L874 1236L873 1235M874 1236L875 1237L874 1236M444.333 1237.67L444.667 1238.33L444.333 1237.67M875 1237L876 1238L875 1237M876 1238L877 1239L876 1238M443 1239L444 1240L443 1239M877 1239L878 1240L877 1239M442 1240L442 1244L443 1244L442 1240M878 1240L879 1241L878 1240M879.333 1241.67L879.667 1242.33L879.333 1241.67M880 1243L881 1244L880 1243M441.333 1244.67L441.667 1245.33L441.333 1244.67M881 1244L882 1245L881 1244M882 1245L883 1246L882 1245M440 1246L441 1247L440 1246M883 1246L884 1247L883 1246M439.333 1247.67L439.667 1248.33L439.333 1247.67M884.333 1247.67L884.667 1248.33L884.333 1247.67M885 1249L886 1250L885 1249M438 1250L438 1254L439 1254L438 1250M886 1250L887 1251L886 1250M887 1251L888 1252L887 1251M888.333 1252.67L888.667 1253.33L888.333 1252.67M437 1254L437 1257L438 1257L437 1254M889 1254L890 1255L889 1254M890 1255L891 1256L890 1255M891.333 1256.67L891.667 1257.33L891.333 1256.67M436 1258L437 1259L436 1258M892 1258L893 1259L892 1258M893 1259L894 1260L893 1259M435 1260L436 1261L435 1260M894 1260L896 1263L894 1260M434 1262L434 1265L435 1265L434 1262M896 1263L897 1264L896 1263M897 1264L897 1266L899 1266L897 1264M433 1266L433 1272L434 1272L433 1266M899 1267L900 1268L899 1267M900.333 1268.67L900.667 1269.33L900.333 1268.67M901 1270L902 1271L901 1270M902 1271L903 1272L902 1271M432 1272L432 1275L433 1275L432 1272M903.333 1272.67L903.667 1273.33L903.333 1272.67M904 1274L906 1277L904 1274M431 1276L431 1279L432 1279L431 1276M906 1277L907 1278L906 1277M907 1278L908 1279L907 1278M908.333 1279.67L908.667 1280.33L908.333 1279.67M430 1281L430 1286L431 1286L430 1281M909.333 1281.67L909.667 1282.33L909.333 1281.67M910 1283L911 1284L910 1283M911.333 1284.67L911.667 1285.33L911.333 1284.67M912.333 1286.67L912.667 1287.33L912.333 1286.67M913 1288L914 1289L913 1288M429 1289L429 1332L430 1332L429.039 1307L429 1289M914 1289L915 1290L914 1289M915.333 1290.67L915.667 1291.33L915.333 1290.67M916.333 1292.67L916.667 1293.33L916.333 1292.67M917 1294L918 1295L917 1294M918 1295L919 1296L918 1295M919.333 1296.67L919.667 1297.33L919.333 1296.67M920.333 1298.67L920.667 1299.33L920.333 1298.67M921.333 1300.67L921.667 1301.33L921.333 1300.67M922 1302L923 1303L922 1302M923.333 1303.67L923.667 1304.33L923.333 1303.67M924 1305L926 1308L924 1305M926 1308L927 1309L926 1308M927.333 1310.67L927.667 1311.33L927.333 1310.67M928 1312L929 1313L928 1312M929 1313L930 1314L929 1313M930.333 1314.67L930.667 1315.33L930.333 1314.67M931.333 1316.67L931.667 1317.33L931.333 1316.67M932.333 1319.67L932.667 1320.33L932.333 1319.67M933 1321L934 1322L933 1321M934 1322L935 1323L934 1322M935 1323L935 1326L936 1326L935 1323M936.333 1326.67L936.667 1327.33L936.333 1326.67M937 1328L939 1331L937 1328M939.333 1331.67L939.667 1332.33L939.333 1331.67M430 1333L430 1338L431 1338L430 1333M940 1333L940 1336L941 1336L940 1333M941 1336L942 1337L941 1336M942.333 1337.67L942.667 1338.33L942.333 1337.67M431 1339L431 1342L432 1342L431 1339M943 1339L943 1342L944 1342L943 1339M944.333 1342.67L944.667 1343.33L944.333 1342.67M432 1343L432 1346L433 1346L432 1343M945 1344L946 1345L945 1344M946.333 1345.67L946.667 1346.33L946.333 1345.67M433 1346L433 1352L434 1352L433 1346M947 1347L947 1351L948 1351L947 1347M948 1351L948 1354L949 1354L948 1351M434.333 1354.67L434.667 1355.33L434.333 1354.67M949 1354L950 1355L949 1354M950 1356L951 1357L950 1356M435 1357L436 1358L435 1357M951 1357L951 1360L952 1360L951 1357M436.333 1358.67L436.667 1359.33L436.333 1358.67M437 1360L437 1364L438 1364L437 1360M952 1361L952 1364L953 1364L952 1361M438 1364L438 1368L439 1368L438 1364M953 1364L953 1367L954 1367L953 1364M954 1367L954 1371L955 1371L954 1367M439 1368L440 1369L439 1368M440.333 1369.67L440.667 1370.33L440.333 1369.67M441.333 1371.67L441.667 1372.33L441.333 1371.67M955 1372L955 1408L956 1408C957.44 1396.61 960.214 1382.85 955 1372M442 1373L442 1376L443 1376L442 1373M443.333 1376.67L443.667 1377.33L443.333 1376.67M444 1378L445 1379L444 1378M445.333 1379.67L445.667 1380.33L445.333 1379.67M446 1382L448 1385L446 1382M586 1382L585 1387L586 1387L589 1382L586 1382M589 1384L590 1385L589 1384M448 1385L449 1386L448 1385M590 1385L591 1386L590 1385M449 1386L450 1387L449 1386M591 1386L592 1387L591 1386M584.333 1387.67L584.667 1388.33L584.333 1387.67M592 1387L593 1388L592 1387M450 1388L451 1389L450 1388M593 1388L593 1391L594 1391L593 1388M451 1389L454 1393L451 1389M583 1389L584 1390L583 1389M582.333 1390.67L582.667 1391.33L582.333 1390.67M594 1391L595 1392L594 1391M581.333 1392.67L581.667 1393.33L581.333 1392.67M595 1392L596 1393L595 1392M454.333 1393.67L454.667 1394.33L454.333 1393.67M596.333 1393.67L596.667 1394.33L596.333 1393.67M580 1394L581 1395L580 1394M455 1395L456 1396L455 1395M579 1395L580 1396L579 1395M597.333 1395.67L597.667 1396.33L597.333 1395.67M456 1396L457 1397L456 1396M578 1396L579 1397L578 1396M457 1397L458 1398L457 1397M598 1397L600 1400L598 1397M458 1398L459 1399L458 1398M577 1398L578 1399L577 1398M459 1399L460 1400L459 1399M576 1399L577 1400L576 1399M460 1400L461 1401L460 1400M575 1400L576 1401L575 1400M600.333 1400.67L600.667 1401.33L600.333 1400.67M461 1401L462 1402L461 1401M574 1401L575 1402L574 1401M462 1402L463 1403L462 1402M573 1402L574 1403L573 1402M463 1403L464 1404L463 1403M572 1403L573 1404L572 1403M601 1403L602 1404L601 1403M464 1404L465 1405L464 1404M571 1404L572 1405L571 1404M465 1405L466 1406L465 1405M570 1405L571 1406L570 1405M602 1405L603 1406L602 1405M466 1406L467 1407L466 1406M569 1406L570 1407L569 1406M603 1406L604 1407L603 1406M467 1407L468 1408L467 1407M567.667 1407.33L568.333 1407.67L567.667 1407.33M604 1407L604 1411L605 1411L604 1407M468.667 1408.33L469.333 1408.67L468.667 1408.33M564 1410L567 1408L564 1410M470 1409L471 1410L470 1409M954.333 1409.67L954.667 1410.33L954.333 1409.67M471 1410L472 1411L471 1410M563 1410L564 1411L563 1410M472 1411L473 1412L472 1411M562 1411L563 1412L562 1411M953 1411L953 1414L954 1414L953 1411M473 1412L473 1413L476 1413L473 1412M560.667 1412.33L561.333 1412.67L560.667 1412.33M605.333 1412.67L605.667 1413.33L605.333 1412.67M476 1413L477 1414L476 1413M557.667 1413.33L558.333 1413.67L557.667 1413.33M477.667 1414.33L478.333 1414.67L477.667 1414.33M556 1414L557 1415L556 1414M606.333 1414.67L606.667 1415.33L606.333 1414.67M952 1414L952 1417L953 1417L952 1414M479 1415L480 1416L479 1415M555 1415L556 1416L555 1415M480 1416L480 1417L483 1417L480 1416M552 1416L552 1417L555 1417L552 1416M607 1416L608 1422L609 1422L607 1416M483.667 1417.33L484.333 1417.67L483.667 1417.33M549 1417L549 1418L552 1418L549 1417M951.333 1417.67L951.667 1418.33L951.333 1417.67M485.667 1418.33L486.333 1418.67L485.667 1418.33M547.667 1418.33L548.333 1418.67L547.667 1418.33M487.667 1419.33L488.333 1419.67L487.667 1419.33M539 1420L539 1421L547 1420L539 1420M489 1420L489 1421L493 1421L489 1420M950 1420L951 1421L950 1420M494.667 1421.33L495.333 1421.67L494.667 1421.33M536 1421L536 1422L539 1422L536 1421M949 1421L950 1422L949 1421M497.667 1422.33L498.333 1422.67L497.667 1422.33M534.667 1422.33L535.333 1422.67L534.667 1422.33M609 1422L609 1426L610 1426L609 1422M948.333 1422.67L948.667 1423.33L948.333 1422.67M500 1423L500 1424L504 1424L500 1423M528 1423L528 1424L533 1424L528 1423M506 1424L506 1425L522 1425L506 1424M947.333 1425.67L947.667 1426.33L947.333 1425.67M610 1427L610 1430L611 1430L610 1427M946 1427L947 1428L946 1427M611 1430L611 1434L612 1434L611 1430M944 1430L945 1431L944 1430M943.333 1431.67L943.667 1432.33L943.333 1431.67M612 1434L612 1441L613 1441L612 1434M942 1434L943 1435L942 1434M941 1435L942 1436L941 1435M940 1436L941 1437L940 1436M939.333 1437.67L939.667 1438.33L939.333 1437.67M797 1439L798 1448L799 1448L799 1445L804 1448L799 1439L797 1439M938 1439L939 1440L938 1439M937 1440L938 1441L937 1440M936 1441L937 1442L936 1441M935 1442L934 1444L936 1444L935 1442M613 1443L613 1449L614 1449L613 1443M933 1444L934 1445L933 1444M932 1445L933 1446L932 1445M931 1446L927 1451L931 1446M799 1448L799 1451L800 1451L799 1448M804.333 1448.67L804.667 1449.33L804.333 1448.67M805 1450L806 1451L805 1450M614 1451L614 1459L615 1459L614 1451M806 1451L807 1452L806 1451M926 1451L927 1452L926 1451M800 1452L800 1457L801 1457L800 1452M807 1452L808 1453L807 1452M925 1452L926 1453L925 1452M808 1453L809 1454L808 1453M924 1453L925 1454L924 1453M809 1454L810 1455L809 1454M923 1454L924 1455L923 1454M810 1455L811 1456L810 1455M921.667 1455.33L922.333 1455.67L921.667 1455.33M811 1456L812 1457L811 1456M920 1456L921 1457L920 1456M801 1457L802 1476L803 1476L801 1457M812 1457L813 1458L812 1457M919 1457L920 1458L919 1457M813 1458L814 1459L813 1458M918 1458L919 1459L918 1458M615 1459L615 1466L616 1466L615 1459M814 1459L815 1460L814 1459M916.667 1459.33L917.333 1459.67L916.667 1459.33M815 1460L816 1461L815 1460M914.667 1460.33L915.333 1460.67L914.667 1460.33M816 1461L817 1462L816 1461M913 1461L914 1462L913 1461M817 1462L818 1463L817 1462M912 1462L913 1463L912 1462M819 1463L820 1464L819 1463M910.667 1463.33L911.333 1463.67L910.667 1463.33M820 1464L821 1465L820 1464M908.667 1464.33L909.333 1464.67L908.667 1464.33M821 1465L822 1466L821 1465M907 1465L908 1466L907 1465M823.667 1466.33L824.333 1466.67L823.667 1466.33M904.667 1466.33L905.333 1466.67L904.667 1466.33M616 1467L616 1476L617 1476L616 1467M825.667 1467.33L826.333 1467.67L825.667 1467.33M900 1468L900 1469L904 1468L900 1468M827 1468L828 1469L827 1468M828.667 1469.33L829.333 1469.67L828.667 1469.33M899 1469L900 1470L899 1469M830 1470L830 1471L833 1471L830 1470M897.667 1470.33L898.333 1470.67L897.667 1470.33M833 1471L833 1472L839 1474L839 1473L833 1471M890 1472L890 1473L896 1472L890 1472M888.667 1473.33L889.333 1473.67L888.667 1473.33M839 1474L839 1475L844 1475L839 1474M885 1474L885 1475L888 1475L885 1474M846 1475L846 1476L882 1476L865 1476.87L846 1475M617 1476L617 1480L618 1480L617 1476M801 1476L800 1487L801 1487L801 1476M618 1480L618 1483L619 1483L618 1480M619.333 1483.67L619.667 1484.33L619.333 1483.67M620 1485L620 1492L621 1492L620 1485M799.333 1487.67L799.667 1488.33L799.333 1487.67M798.333 1490.67L798.667 1491.33L798.333 1490.67M797 1492L797 1495L798 1495L797 1492M621 1493L622 1494L621 1493M622 1495L623 1496L622 1495M796.333 1495.67L796.667 1496.33L796.333 1495.67M623 1496L624 1497L623 1496M624.333 1498.67L624.667 1499.33L624.333 1498.67M795 1498L796 1499L795 1498M794 1499L795 1500L794 1499M625 1500L625 1503L626 1503L625 1500M793.333 1500.67L793.667 1501.33L793.333 1500.67M792.333 1502.67L792.667 1503.33L792.333 1502.67M626.333 1503.67L626.667 1504.33L626.333 1503.67M791 1504L792 1505L791 1504M627 1505L628 1506L627 1505M790 1505L791 1506L790 1505M628.333 1506.67L628.667 1507.33L628.333 1506.67M789 1506L790 1507L789 1506M788.333 1507.67L788.667 1508.33L788.333 1507.67M629.333 1508.67L629.667 1509.33L629.333 1508.67M787 1509L788 1510L787 1509M630 1510L631 1511L630 1510M786 1510L787 1511L786 1510M631 1511L632 1512L631 1511M785 1511L786 1512L785 1511M632 1512L632 1515L633 1515L632 1512M784 1512L782 1515L784 1512M633 1515L634 1516L633 1515M781 1515L779 1518L781 1515M634 1516L635 1517L634 1516M635 1517L636 1518L635 1517M636 1518L637 1519L636 1518M778 1518L779 1519L778 1518M637 1519L638 1520L637 1519M777 1519L778 1520L777 1519M776 1520L777 1521L776 1520M639 1521L640 1522L639 1521M775 1521L776 1522L775 1521M640 1522L641 1523L640 1522M774 1522L775 1523L774 1522M641 1523L642 1524L641 1523M772 1523L773 1524L772 1523M642 1524L643 1525L642 1524M771 1524L772 1525L771 1524M643 1525L644 1526L643 1525M768 1527L771 1525L768 1527M644 1526L645 1527L644 1526M645 1527L646 1528L645 1527M767 1527L768 1528L767 1527M646 1528L647 1529L646 1528M765.667 1528.33L766.333 1528.67L765.667 1528.33M648 1529L649 1530L648 1529M761 1532L765 1530L761 1532M649 1530L650 1531L649 1530M650 1531L651 1532L650 1531M651.667 1532.33L652.333 1532.67L651.667 1532.33M759 1532L760 1533L759 1532M653.667 1533.33L654.333 1533.67L653.667 1533.33M756.667 1533.33L757.333 1533.67L756.667 1533.33M655 1534L656 1535L655 1534M754.667 1534.33L755.333 1534.67L754.667 1534.33M656.667 1535.33L657.333 1535.67L656.667 1535.33M753 1535L754 1536L753 1535M658 1536L659 1537L658 1536M750 1536L750 1537L753 1537L750 1536M660.667 1537.33L661.333 1537.67L660.667 1537.33M747 1537L747 1538L750 1538L747 1537M663 1538L664 1539L663 1538M745.667 1538.33L746.333 1538.67L745.667 1538.33M664.667 1539.33L665.333 1539.67L664.667 1539.33M743.667 1539.33L744.333 1539.67L743.667 1539.33M666 1540L666 1541L669 1541L666 1540M738 1540L738 1541L743 1541L738 1540M670.667 1541.33L671.333 1541.67L670.667 1541.33M735 1541L735 1542L738 1542L735 1541M673.667 1542.33L674.333 1542.67L673.667 1542.33M732.667 1542.33L733.333 1542.67L732.667 1542.33M675.667 1543.33L676.333 1543.67L675.667 1543.33M730.667 1543.33L731.333 1543.67L730.667 1543.33M678 1544L678 1545L687 1545L678 1544M720 1544L720 1545L729 1545L720 1544M687 1545L687 1546L693 1546L687 1545M712 1545L712 1546L719 1546L712 1545M694 1546L694 1547L699 1547L694 1546M705 1546L705 1547L711 1547L705 1546z"/>
</svg>
